# Roxa - brawler original (personnage humain, fusil scie double canon)
mtllib roxa_brawler.mtl
v -1.0000 2.0000 -0.5000
v 1.0000 2.0000 -0.5000
v 1.0000 4.0000 -0.5000
v -1.0000 4.0000 -0.5000
v -1.0000 2.0000 0.5000
v 1.0000 2.0000 0.5000
v 1.0000 4.0000 0.5000
v -1.0000 4.0000 0.5000
v -0.7000 4.1500 -0.7000
v 0.7000 4.1500 -0.7000
v 0.7000 5.5500 -0.7000
v -0.7000 5.5500 -0.7000
v -0.7000 4.1500 0.7000
v 0.7000 4.1500 0.7000
v 0.7000 5.5500 0.7000
v -0.7000 5.5500 0.7000
v -0.7500 5.1750 -0.7500
v 0.7500 5.1750 -0.7500
v 0.7500 5.5250 -0.7500
v -0.7500 5.5250 -0.7500
v -0.7500 5.1750 0.7500
v 0.7500 5.1750 0.7500
v 0.7500 5.5250 0.7500
v -0.7500 5.5250 0.7500
v -1.8000 2.0000 -0.4000
v -1.0000 2.0000 -0.4000
v -1.0000 4.0000 -0.4000
v -1.8000 4.0000 -0.4000
v -1.8000 2.0000 0.4000
v -1.0000 2.0000 0.4000
v -1.0000 4.0000 0.4000
v -1.8000 4.0000 0.4000
v 1.0000 2.0000 -0.2000
v 1.8000 2.0000 -0.2000
v 1.8000 4.0000 -0.2000
v 1.0000 4.0000 -0.2000
v 1.0000 2.0000 0.6000
v 1.8000 2.0000 0.6000
v 1.8000 4.0000 0.6000
v 1.0000 4.0000 0.6000
v -0.9500 0.0000 -0.4500
v -0.0500 0.0000 -0.4500
v -0.0500 2.0000 -0.4500
v -0.9500 2.0000 -0.4500
v -0.9500 0.0000 0.4500
v -0.0500 0.0000 0.4500
v -0.0500 2.0000 0.4500
v -0.9500 2.0000 0.4500
v 0.0500 0.0000 -0.4500
v 0.9500 0.0000 -0.4500
v 0.9500 2.0000 -0.4500
v 0.0500 2.0000 -0.4500
v 0.0500 0.0000 0.4500
v 0.9500 0.0000 0.4500
v 0.9500 2.0000 0.4500
v 0.0500 2.0000 0.4500
v 1.4000 1.8000 0.2000
v 1.8000 1.8000 0.2000
v 1.8000 2.2000 0.2000
v 1.4000 2.2000 0.2000
v 1.4000 1.8000 1.6000
v 1.8000 1.8000 1.6000
v 1.8000 2.2000 1.6000
v 1.4000 2.2000 1.6000
v 1.4750 2.0250 1.1000
v 1.7250 2.0250 1.1000
v 1.7250 2.2750 1.1000
v 1.4750 2.2750 1.1000
v 1.4750 2.0250 2.3000
v 1.7250 2.0250 2.3000
v 1.7250 2.2750 2.3000
v 1.4750 2.2750 2.3000
v 1.4750 1.7250 1.1000
v 1.7250 1.7250 1.1000
v 1.7250 1.9750 1.1000
v 1.4750 1.9750 1.1000
v 1.4750 1.7250 2.3000
v 1.7250 1.7250 2.3000
v 1.7250 1.9750 2.3000
v 1.4750 1.9750 2.3000
usemtl outfit
f 1 2 3 4
f 5 6 7 8
f 1 2 6 5
f 3 4 8 7
f 2 3 7 6
f 4 1 5 8
usemtl skin
f 9 10 11 12
f 13 14 15 16
f 9 10 14 13
f 11 12 16 15
f 10 11 15 14
f 12 9 13 16
usemtl accent
f 17 18 19 20
f 21 22 23 24
f 17 18 22 21
f 19 20 24 23
f 18 19 23 22
f 20 17 21 24
usemtl skin
f 25 26 27 28
f 29 30 31 32
f 25 26 30 29
f 27 28 32 31
f 26 27 31 30
f 28 25 29 32
f 33 34 35 36
f 37 38 39 40
f 33 34 38 37
f 35 36 40 39
f 34 35 39 38
f 36 33 37 40
usemtl metal
f 41 42 43 44
f 45 46 47 48
f 41 42 46 45
f 43 44 48 47
f 42 43 47 46
f 44 41 45 48
f 49 50 51 52
f 53 54 55 56
f 49 50 54 53
f 51 52 56 55
f 50 51 55 54
f 52 49 53 56
usemtl wood
f 57 58 59 60
f 61 62 63 64
f 57 58 62 61
f 59 60 64 63
f 58 59 63 62
f 60 57 61 64
usemtl metal
f 65 66 67 68
f 69 70 71 72
f 65 66 70 69
f 67 68 72 71
f 66 67 71 70
f 68 65 69 72
f 73 74 75 76
f 77 78 79 80
f 73 74 78 77
f 75 76 80 79
f 74 75 79 78
f 76 73 77 80
